<?xml version="1.0" standalone="no"?>
<!DOCTYPE svg PUBLIC "-//W3C//DTD SVG 20010904//EN"
 "http://www.w3.org/TR/2001/REC-SVG-20010904/DTD/svg10.dtd">
<svg version="1.0" xmlns="http://www.w3.org/2000/svg"
 width="501.000000pt" height="501.000000pt" viewBox="0 0 501.000000 501.000000"
 preserveAspectRatio="xMidYMid meet">
<metadata>
Created by potrace 1.14, written by Peter Selinger 2001-2017
</metadata>
<g transform="translate(0.000000,501.000000) scale(0.100000,-0.100000)"
fill="#000000" stroke="none">
<path d="M2488 4794 c-2 -2 -22 -6 -44 -9 -84 -13 -160 -25 -184 -30 -31 -6
-127 -24 -160 -29 -54 -10 -178 -25 -235 -30 -33 -3 -91 -8 -130 -11 -145 -13
-256 -45 -332 -97 -23 -15 -47 -28 -53 -28 -35 0 -191 -109 -265 -184 -71 -73
-194 -176 -209 -176 -3 0 -14 -7 -23 -15 -10 -8 -63 -46 -118 -85 -131 -92
-164 -126 -204 -199 -36 -67 -43 -91 -42 -138 0 -18 -4 -35 -9 -38 -5 -3 -7
-12 -4 -20 7 -17 -48 -72 -110 -111 -37 -23 -49 -39 -66 -84 -41 -113 -52
-174 -56 -327 -4 -123 -8 -161 -24 -198 -28 -66 -28 -181 1 -237 21 -40 21
-44 6 -88 -9 -25 -24 -75 -33 -112 -15 -63 -15 -72 1 -145 10 -43 31 -101 47
-130 l29 -52 -31 -100 c-45 -148 -42 -223 16 -339 23 -48 59 -104 78 -126 20
-21 36 -43 36 -49 0 -6 19 -30 43 -53 65 -64 111 -124 187 -239 96 -146 130
-216 186 -390 65 -205 101 -257 236 -348 38 -25 182 -78 318 -116 129 -37 240
-81 410 -162 103 -49 203 -89 265 -106 96 -25 112 -26 385 -29 292 -2 386 3
570 31 155 23 405 91 520 141 19 9 44 19 55 24 92 38 326 167 394 217 177 130
227 172 325 269 364 363 596 838 661 1353 14 116 18 421 5 516 -4 33 -11 85
-14 115 -4 30 -11 71 -16 90 -5 19 -11 47 -14 62 -9 56 -48 186 -83 283 -129
360 -345 680 -635 941 -69 62 -243 194 -257 194 -5 0 -11 4 -13 8 -8 20 -211
130 -372 202 -57 25 -273 97 -331 110 -127 28 -201 42 -309 56 -22 3 -44 8
-50 11 -10 7 -342 14 -348 7z m387 -1110 c137 -27 295 -88 404 -158 251 -162
423 -378 518 -651 44 -130 57 -210 57 -375 1 -164 -3 -205 -29 -310 -9 -36
-17 -72 -19 -80 -24 -97 -140 -312 -220 -409 -42 -50 -132 -138 -181 -177 -27
-21 -51 -42 -53 -46 -2 -5 -10 -8 -17 -8 -7 0 -15 -3 -17 -8 -6 -14 -122 -78
-198 -109 -127 -52 -291 -96 -410 -110 -30 -3 -62 -7 -70 -8 -45 -6 -200 49
-270 96 -14 9 -29 17 -35 18 -26 3 -83 26 -115 47 -19 13 -65 28 -101 35 -61
11 -68 15 -83 45 -15 33 -77 86 -126 107 -14 6 -39 22 -56 34 -17 13 -45 28
-63 34 -17 6 -35 19 -39 28 -5 9 -2 64 6 122 8 58 12 119 8 135 -4 15 -26 47
-50 70 -64 65 -69 79 -50 144 23 82 21 143 -7 178 -14 17 -67 50 -121 77 -54
26 -99 53 -99 59 -1 6 -3 21 -4 33 -2 19 -8 55 -21 133 -6 32 15 51 111 107
39 23 78 49 87 59 19 23 32 90 18 99 -6 4 -8 10 -6 14 3 4 1 13 -4 20 -11 19
8 82 33 110 12 13 54 45 92 71 134 91 143 103 221 305 44 114 98 188 148 205
17 5 92 9 166 8 104 -1 150 2 200 16 36 10 70 19 75 20 176 38 214 41 320 20z"/>
</g>
</svg>
